<?xml version="1.0" encoding="utf-8"?>
<svg viewBox="0 0 128 128" fill="none" xmlns="http://www.w3.org/2000/svg">
  <path d="M 71.283 103.835 C 71.403 91.482 68.278 81.439 64.302 81.4 C 60.325 81.361 57.004 91.342 56.883 103.695 C 56.763 116.045 59.889 126.09 63.865 126.129 C 67.842 126.169 71.163 116.188 71.283 103.835 Z" fill="#6F4FFF" transform="matrix(0.9999999999999999, 0, 0, 0.9999999999999999, -1.4210854715202004e-14, 0)"/>
  <path d="M 48.222 101.028 C 54.99 90.702 57.781 80.561 54.458 78.375 C 51.133 76.188 42.952 82.785 36.185 93.111 C 29.417 103.437 26.625 113.58 29.949 115.767 C 33.273 117.954 41.453 111.354 48.222 101.028 Z" fill="#6F4FFF" transform="matrix(0.9999999999999999, 0, 0, 0.9999999999999999, -1.4210854715202004e-14, 0)"/>
  <path d="M 30.307 86.214 C 41.574 81.195 49.396 74.175 47.78 70.533 C 46.164 66.894 35.721 68.012 24.455 73.034 C 13.189 78.055 5.367 85.075 6.983 88.715 C 8.599 92.354 19.042 91.235 30.307 86.214 Z" fill="#6F4FFF" transform="matrix(0.9999999999999999, 0, 0, 0.9999999999999999, -1.4210854715202004e-14, 0)"/>
  <path d="M 46.428 60.327 C 47.033 56.388 37.644 51.672 25.458 49.794 C 13.271 47.916 2.902 49.584 2.297 53.52 C 1.691 57.459 11.081 62.175 23.267 64.053 C 35.454 65.932 45.823 64.264 46.428 60.327 Z" fill="#6F4FFF" transform="matrix(0.9999999999999999, 0, 0, 0.9999999999999999, -1.4210854715202004e-14, 0)"/>
  <path d="M 50.804 50.946 C 53.437 47.96 48.082 38.91 38.843 30.729 C 29.604 22.548 19.979 18.337 17.346 21.323 C 14.713 24.309 20.068 33.359 29.307 41.54 C 38.546 49.721 48.171 53.932 50.804 50.946 Z" fill="#6F4FFF" transform="matrix(0.9999999999999999, 0, 0, 0.9999999999999999, -1.4210854715202004e-14, 0)"/>
  <path d="M 59.517 45.465 C 63.343 44.38 63.724 33.864 60.367 21.979 C 57.009 10.094 51.185 1.335 47.36 2.42 C 43.533 3.505 43.153 14.022 46.51 25.907 C 49.867 37.792 55.691 46.55 59.517 45.465 Z" fill="#6F4FFF" transform="matrix(0.9999999999999999, 0, 0, 0.9999999999999999, -1.4210854715202004e-14, 0)"/>
  <path d="M 83.178 26.277 C 86.769 14.459 86.595 3.94 82.791 2.779 C 78.988 1.619 72.993 10.26 69.402 22.077 C 65.812 33.894 65.984 44.414 69.789 45.574 C 73.593 46.732 79.588 38.094 83.178 26.277 Z" fill="#6F4FFF" transform="matrix(0.9999999999999999, 0, 0, 0.9999999999999999, -1.4210854715202004e-14, 0)"/>
  <path d="M 100.085 42.244 C 109.482 34.248 115.013 25.301 112.438 22.265 C 109.863 19.231 100.158 23.252 90.762 31.251 C 81.365 39.247 75.834 48.193 78.409 51.229 C 80.983 54.266 90.688 50.243 100.085 42.244 Z" fill="#6F4FFF" transform="matrix(0.9999999999999999, 0, 0, 0.9999999999999999, -1.4210854715202004e-14, 0)"/>
  <path d="M 105.675 64.841 C 117.897 63.204 127.376 58.673 126.848 54.726 C 126.322 50.778 115.987 48.905 103.765 50.543 C 91.544 52.18 82.064 56.708 82.592 60.658 C 83.119 64.606 93.453 66.479 105.675 64.841 Z" fill="#6F4FFF" transform="matrix(0.9999999999999999, 0, 0, 0.9999999999999999, -1.4210854715202004e-14, 0)"/>
  <path d="M 121.441 89.842 C 123.128 86.236 115.445 79.062 104.28 73.819 C 93.116 68.579 82.697 67.252 81.009 70.861 C 79.322 74.466 87.004 81.641 98.17 86.884 C 109.334 92.124 119.753 93.45 121.441 89.842 Z" fill="#6F4FFF" transform="matrix(0.9999999999999999, 0, 0, 0.9999999999999999, -1.4210854715202004e-14, 0)"/>
  <path d="M 97.831 116.502 C 101.181 114.376 98.604 104.171 92.071 93.702 C 85.54 83.233 77.531 76.465 74.181 78.59 C 70.83 80.713 73.411 90.921 79.94 101.39 C 86.472 111.859 94.481 118.624 97.831 116.502 Z" fill="#6F4FFF" transform="matrix(0.9999999999999999, 0, 0, 0.9999999999999999, -1.4210854715202004e-14, 0)"/>
</svg>